# xmcd
#
# Track frame offsets:
#	150
#	11197
#	22532
#	32390
#	42505
#	54367
#	66115
#	77197
#	88895
#	98422
#	111735
#	121352
#	134052
#	144555
#	154100
#	165187
#	174520
#	184610
#	197570
#	207817
#
# Disc length: 2906 seconds
# Revision: 1
# Processed by: cddbd v1.5.2PL0 Copyright (c) Steve Scherf et al.
# Submitted via: dBpowerAMP V12.0
#
DISCID=070b5814
DTITLE=Freddie Hart - Easy Loving - My Hang Up Is You
DYEAR=1900
DGENRE=Country
TTITLE0=Easy Loving
TTITLE1=House Of Sand
TTITLE2=Without You
TTITLE3=If Finger Prints  Showed Up On Skin
TTITLE4=One More Mountain To Climb
TTITLE5=Write It All In Put It All In
TTITLE6=That Hurting Feeling
TTITLE7=The Whole World Holding Hands
TTITLE8=In The Arms Of Love
TTITLE9=California Grapevine
TTITLE10=My Hang Up Is You
TTITLE11=I Thank The Lord She`s Mine
TTITLE12=Jesus Is My Kind Of People
TTITLE13=Love Makes The Difference
TTITLE14=Loveing Her Through You
TTITLE15=I`m In Love
TTITLE16=Heart
TTITLE17=The Keys In The Mailbox
TTITLE18=Would Yoy Settle For Roses
TTITLE19=Greatest Gift Of All
EXTD=
EXTT0=
EXTT1=
EXTT2=
EXTT3=
EXTT4=
EXTT5=
EXTT6=
EXTT7=
EXTT8=
EXTT9=
EXTT10=
EXTT11=
EXTT12=
EXTT13=
EXTT14=
EXTT15=
EXTT16=
EXTT17=
EXTT18=
EXTT19=
PLAYORDER=
